<svg id="Layer_1" data-name="Layer 1" xmlns="http://www.w3.org/2000/svg" viewBox="0 0 2244.7 1871.93"><defs><style>.cls-1{fill:#00b7ff;}.cls-1,.cls-2{stroke:#00b7ff;stroke-miterlimit:10;}.cls-2{stroke-width:5px;}</style></defs><title>logo</title><polygon class="cls-1" points="1693.01 334.89 2069.8 334.89 2243.52 156.28 1646.12 156.28 1430.67 158.7 1467.65 61.93 1163.07 247.02 867.86 952.24 560.93 952.24 952.21 61.93 574.99 265.76 26.75 1594.21 164.98 1870.67 457.85 1158.42 795.23 1158.42 638.25 1575.46 776.09 1869.84 775.49 1871.43 1010.37 1871.43 1039.86 1796.38 1338.23 1037.1 1497.27 926.99 1859.38 926.99 2069.8 743.49 1441.11 741.82 1544.79 444.23 1693.01 334.89"/><polygon class="cls-2" points="1670.01 277.89 2046.8 277.89 2220.52 99.28 1623.12 99.28 1407.05 101.71 1443.65 5.93 1139.07 191.02 843.86 896.24 536.93 896.24 928.21 5.93 550.99 209.76 2.75 1538.21 140.98 1814.67 433.85 1102.42 771.23 1102.42 614.25 1519.46 752.49 1814.67 752.58 1814.43 987.37 1814.43 1016.86 1739.38 1315.23 980.1 1474.27 869.99 1836.38 869.99 2046.8 686.49 1418.11 684.82 1521.79 387.23 1670.01 277.89"/></svg>