<svg id="Layer_1" data-name="Layer 1" xmlns="http://www.w3.org/2000/svg" viewBox="0 0 2251.97 1872.86"><defs><style>.cls-1,.cls-2{fill:#00b7ff;stroke:#00b7ff;}.cls-1,.cls-2,.cls-3,.cls-4{stroke-miterlimit:10;}.cls-1{stroke-width:2px;}.cls-2,.cls-3{stroke-width:3px;}.cls-3,.cls-4{stroke:#000;}.cls-4{stroke-width:5px;}</style></defs><title>logo2</title><polygon class="cls-1" points="578.89 265.39 956.11 61.56 564.84 951.87 871.76 951.87 1166.97 246.65 1471.55 61.56 780.39 1870.3 642.15 1575.09 799.13 1158.05 461.75 1158.05 168.88 1870.3 30.65 1593.84 578.89 265.39"/><polyline class="cls-2" points="780.39 1871.06 1015.27 1871.06 1044.77 1796 1343.13 1036.72 1502.17 926.62 1864.28 926.62 2074.7 743.12 1446.01 741.45 1549.69 443.86 1697.91 334.52 2074.7 334.52 2248.42 155.91 1651.02 155.91 1433.66 158.35"/><polygon class="cls-3" points="549.89 207.39 927.11 3.56 535.84 893.87 842.76 893.87 1137.97 188.65 1442.55 3.56 751.39 1812.3 613.15 1517.09 770.13 1100.05 432.75 1100.05 139.88 1812.3 1.65 1535.84 549.89 207.39"/><polyline class="cls-4" points="751.39 1813.06 986.27 1813.06 1015.76 1738 1314.13 978.73 1473.17 868.62 1835.28 868.62 2045.7 685.12 1417.01 683.45 1520.69 385.86 1668.91 276.52 2045.7 276.52 2219.42 97.91 1622.02 97.91 1404.66 100.35"/></svg>