<svg id="Layer_1" data-name="Layer 1" xmlns="http://www.w3.org/2000/svg" viewBox="0 0 2245.19 1883.79"><defs><style>.cls-1{fill:#00b7ff;}.cls-1,.cls-2{stroke:#00b7ff;stroke-miterlimit:10;}.cls-2{stroke-width:15px;}</style></defs><title>logo</title><polygon class="cls-1" points="1693.5 346.74 2070.29 346.74 2244.01 168.13 1646.61 168.13 1431.16 170.56 1468.14 73.78 1163.56 258.88 868.35 964.1 561.43 964.1 952.7 73.78 575.48 277.62 27.24 1606.07 165.47 1882.53 458.34 1170.28 795.72 1170.28 638.74 1587.32 776.58 1881.69 775.98 1883.29 1010.86 1883.29 1040.35 1808.23 1338.72 1048.95 1497.76 938.85 1859.87 938.85 2070.29 755.35 1441.6 753.68 1545.28 456.09 1693.5 346.74"/><polygon class="cls-2" points="1675.5 289.74 2052.29 289.74 2226.01 111.13 1628.61 111.13 1412.54 113.57 1449.14 17.79 1144.56 202.88 849.35 908.1 542.43 908.1 933.7 17.79 556.48 221.62 8.24 1550.07 146.47 1826.53 439.34 1114.28 776.72 1114.28 619.74 1531.32 757.98 1826.53 758.07 1826.29 992.86 1826.29 1022.35 1751.23 1320.72 991.95 1479.76 881.85 1841.87 881.85 2052.29 698.35 1423.6 696.68 1527.28 399.09 1675.5 289.74"/></svg>